<svg width="28" height="28" viewBox="0 0 28 28" fill="none" xmlns="http://www.w3.org/2000/svg">
<path id="coolicon" d="M14 28C21.732 28 28 21.732 28 14C28 6.26801 21.732 0 14 0C6.26801 0 4.76837e-07 6.26801 4.76837e-07 14C0.0084877 21.7285 6.27153 27.9915 14 28ZM14 2.8C20.1524 2.80156 25.1518 7.76561 25.1969 13.9179C25.242 20.0702 20.316 25.107 14.1642 25.1988C8.01247 25.2905 2.93843 20.4029 2.8 14.252V16.7482V14C2.80694 7.81729 7.81729 2.80694 14 2.8ZM14 21L21 14L14 7L12.026 8.974L15.638 12.6H7V15.4H15.638L12.026 19.026L14 21Z" fill="white"/>
</svg>
