<svg width="28" height="28" viewBox="0 0 28 28" fill="none" xmlns="http://www.w3.org/2000/svg">
<path id="coolicon" d="M14 28C6.26801 28 0 21.732 0 14C0 6.26801 6.26801 0 14 0C21.732 0 28 6.26801 28 14C27.9915 21.7285 21.7285 27.9915 14 28ZM14 2.8C7.84756 2.80156 2.84824 7.76561 2.80314 13.9179C2.75803 20.0702 7.68402 25.107 13.8358 25.1988C19.9875 25.2905 25.0616 20.4029 25.2 14.252V16.7482V14C25.1931 7.81729 20.1827 2.80694 14 2.8ZM14 21L7 14L14 7L15.974 8.974L12.362 12.6H21V15.4H12.362L15.974 19.026L14 21Z" fill="white"/>
</svg>
