<svg width="20" height="20" viewBox="0 0 20 20" fill="none" xmlns="http://www.w3.org/2000/svg">
<path id="coolicon" d="M10 0C15.5228 0 20 4.47715 20 10C20 15.5228 15.5228 20 10 20C4.47715 20 0 15.5228 0 10C0.0060623 4.47967 4.47967 0.0060623 10 0ZM10 18C14.3946 17.9989 17.9655 14.4531 17.9978 10.0587C18.03 5.66417 14.5114 2.06644 10.1173 2.00089C5.7232 1.93534 2.09888 5.42651 2 9.82V8.037V10C2.00496 14.4162 5.58378 17.995 10 18ZM10 5L15 10L10 15L8.59 13.59L11.17 11H5V9H11.17L8.59 6.41L10 5Z" fill="#3399CC"/>
</svg>
