<svg width="118" height="59" viewBox="0 0 118 59" fill="none" xmlns="http://www.w3.org/2000/svg">
<g id="Vector">
<g id="Cloudolle logo">
<g id="Group">
<path id="Vector_2" d="M9.44628 43.9092C12.7545 43.9092 15.2497 45.7473 16.0416 48.7181H12.3188C11.7448 47.546 10.6952 46.9587 9.40642 46.9587C7.3258 46.9587 5.90152 48.4821 5.90152 50.9076C5.90152 53.333 7.32846 54.8565 9.40642 54.8565C10.6952 54.8565 11.7448 54.2691 12.3188 53.097H16.0416C15.2497 56.0679 12.7545 57.885 9.44628 57.885C5.34616 57.885 2.45508 55.0112 2.45508 50.9076C2.45508 46.804 5.34616 43.9118 9.44628 43.9118V43.9092Z" fill="#11466B"/>
<path id="Vector_3" d="M21.9068 44.0654V55.2068H26.3444V57.7869H18.5215V44.0654H21.9095H21.9068Z" fill="#11466B"/>
<path id="Vector_4" d="M34.9397 57.921C30.999 57.921 27.7891 55.0079 27.7891 50.8859C27.7891 46.764 30.999 43.8691 34.9397 43.8691C38.8804 43.8691 42.0505 46.7613 42.0505 50.8859C42.0505 55.0105 38.8804 57.921 34.9397 57.921ZM34.9397 54.8715C37.1585 54.8715 38.604 53.2878 38.604 50.8833C38.604 48.4788 37.1585 46.8951 34.9397 46.8951C32.7209 46.8951 31.2568 48.4395 31.2568 50.8833C31.2568 53.3271 32.6837 54.8715 34.9397 54.8715Z" fill="#11466B"/>
<path id="Vector_5" d="M44.2695 44.0654H47.6575V52.2753C47.6575 53.8983 48.4706 54.8344 50.0729 54.8344C51.6753 54.8344 52.5282 53.8957 52.5282 52.2753V44.0654H55.9162V52.2543C55.9162 56.0458 53.2218 57.9233 50.0145 57.9233C46.8072 57.9233 44.2695 56.0458 44.2695 52.2543V44.0654Z" fill="#11466B"/>
<path id="Vector_6" d="M71.1865 50.9255C71.1865 54.9898 68.3352 57.785 63.8976 57.785H58.6895V44.0635H63.8976C68.3352 44.0635 71.1865 46.8377 71.1865 50.9229V50.9255ZM63.6798 54.8928C66.236 54.8928 67.74 53.4454 67.74 50.9255C67.74 48.4057 66.2334 46.919 63.6798 46.919H62.0748V54.8928H63.6798Z" fill="#11466B"/>
<path id="Vector_7" d="M80.0394 57.9215C76.1386 57.9215 72.9473 55.0293 72.9473 50.9257C72.9473 46.8221 76.136 43.9482 80.0394 43.9482C83.9429 43.9482 87.1104 46.8404 87.1104 50.9257C87.1104 55.0109 83.9615 57.9215 80.0394 57.9215ZM80.0394 55.4776C82.5346 55.4776 84.2591 53.6999 84.2591 50.923C84.2591 48.1462 82.5346 46.4078 80.0394 46.4078C77.5443 46.4078 75.8011 48.1462 75.8011 50.923C75.8011 53.6999 77.523 55.4776 80.0394 55.4776Z" fill="#28A9E1"/>
<path id="Vector_8" d="M92.3406 44.1413V55.613H96.8951V57.7815H89.5664V44.1387H92.3406V44.1413Z" fill="#28A9E1"/>
<path id="Vector_9" d="M101.829 44.1413V55.613H106.383V57.7815H99.0547V44.1387H101.829V44.1413Z" fill="#28A9E1"/>
<path id="Vector_10" d="M116.565 46.3518H111.317V49.7711H115.973V51.9395H111.317V55.5554H116.565V57.7842H108.543V44.123H116.565V46.3518Z" fill="#28A9E1"/>
</g>
<g id="Group_2">
<path id="Vector_11" d="M71.1626 7.93953C68.771 3.62354 64.1315 0.697266 58.7958 0.697266C52.8489 0.697266 47.7656 4.33675 45.7009 9.47871C45.7009 9.47871 46.2669 21.7633 35.3828 28.5834C37.5724 31.2815 40.9338 33.0147 44.7097 33.0147C80.0564 33.0147 71.1626 7.94215 71.1626 7.94215V7.93953Z" fill="#28A9E1"/>
<path id="Vector_12" d="M43.3081 9.652C43.0158 9.6284 42.7235 9.60742 42.4233 9.60742C36.5322 9.60742 31.7598 14.3194 31.7598 20.1299C31.7598 22.6157 32.6393 24.8969 34.1008 26.6983C43.8157 20.6124 43.3081 9.64938 43.3081 9.64938V9.652Z" fill="#11466B"/>
<path id="Vector_13" d="M75.5627 9.2373C74.9808 9.2373 74.4068 9.27926 73.8435 9.3553C73.8435 9.3553 82.7346 34.4279 47.3906 34.4279H75.5627C82.6124 34.4279 88.3254 28.7877 88.3254 21.8339C88.3254 14.8801 82.6097 9.2373 75.5627 9.2373Z" fill="#11466B"/>
</g>
</g>
</g>
</svg>
