<svg width="133" height="18" viewBox="0 0 133 18" fill="none" xmlns="http://www.w3.org/2000/svg">
<g id="socials">
<g id="001-facebook-logo-button">
<path id="Path" d="M8.43363 9.41472H6.09442C6.09442 13.1316 6.09442 17.7068 6.09442 17.7068H2.62817C2.62817 17.7068 2.62817 13.176 2.62817 9.41472H0.980469V6.48403H2.62817V4.58842C2.62817 3.23078 3.27682 1.10938 6.12627 1.10938L8.69483 1.11917V3.96403C8.69483 3.96403 7.13401 3.96403 6.83053 3.96403C6.52705 3.96403 6.09558 4.11494 6.09558 4.76237V6.48461H8.73653L8.43363 9.41472Z" fill="white"/>
</g>
<g id="002-twitter">
<path id="Path_2" d="M51.4473 5.75498L51.4581 6.21341C51.4581 10.8947 47.8772 16.288 41.3282 16.288C39.3182 16.288 37.4473 15.702 35.8711 14.697C36.1495 14.7293 36.4332 14.7473 36.7207 14.7473C38.3891 14.7473 39.9238 14.181 41.1421 13.2318C39.5839 13.2031 38.2698 12.1783 37.8161 10.7725C38.0348 10.8138 38.2553 10.8337 38.4867 10.8337C38.8121 10.8337 39.1266 10.7923 39.4248 10.7114C37.7962 10.3842 36.5688 8.95503 36.5688 7.23998V7.19504C37.0496 7.4611 37.5973 7.61929 38.1812 7.6391C37.2268 7.0045 36.5977 5.92045 36.5977 4.69257C36.5977 4.0436 36.7731 3.43596 37.0785 2.91283C38.8337 5.05574 41.4583 6.46516 44.4174 6.61259C44.3559 6.35369 44.3252 6.08225 44.3252 5.80542C44.3252 3.85128 45.9195 2.26562 47.8862 2.26562C48.9093 2.26562 49.8348 2.69526 50.4855 3.3838C51.2953 3.22377 52.0582 2.92897 52.7468 2.52447C52.4811 3.35145 51.9172 4.04537 51.1815 4.48399C51.8991 4.39949 52.5878 4.20711 53.2259 3.92668C52.7487 4.63497 52.1431 5.25881 51.4473 5.75498Z" fill="white"/>
</g>
<g id="004-vimeo-social-logo">
<g id="logo-instagram">
<path id="Combined Shape" fill-rule="evenodd" clip-rule="evenodd" d="M80.8414 0.054C81.8067 0.0105 82.1151 0 84.5728 0C87.0304 0 87.3388 0.0105 88.3041 0.054C89.7746 0.12075 91.0664 0.47925 92.1033 1.5105C93.1402 2.54175 93.5007 3.8265 93.5678 5.289C93.6115 6.249 93.6221 6.55575 93.6221 9C93.6221 11.4443 93.6115 11.751 93.5678 12.711C93.5007 14.1735 93.1402 15.4583 92.1033 16.4895C91.0664 17.5208 89.7746 17.8792 88.3041 17.946C87.3388 17.9895 87.0304 18 84.5728 18C82.1151 18 81.8067 17.9895 80.8414 17.946C79.3709 17.8792 78.0791 17.5208 77.0422 16.4895C76.0053 15.4583 75.6448 14.1735 75.5777 12.711C75.534 11.751 75.5234 11.4443 75.5234 9C75.5234 6.55575 75.534 6.249 75.5777 5.289C75.6448 3.8265 76.0053 2.54175 77.0422 1.5105C78.0791 0.47925 79.3709 0.12075 80.8414 0.054ZM88.2358 1.6775C87.2818 1.634 86.9953 1.625 84.5791 1.625C82.1629 1.625 81.8764 1.634 80.9224 1.6775C79.8923 1.724 78.9368 1.9295 78.2016 2.66075C77.4663 3.392 77.2597 4.34225 77.2129 5.36675C77.1692 6.3155 77.1602 6.6005 77.1602 9.0035C77.1602 11.4065 77.1692 11.6915 77.2129 12.6402C77.2597 13.6647 77.4663 14.615 78.2016 15.3462C78.9368 16.0775 79.8923 16.283 80.9224 16.3295C81.8764 16.373 82.1629 16.382 84.5791 16.382C86.9953 16.382 87.2818 16.373 88.2358 16.3295C89.2659 16.283 90.2213 16.0775 90.9566 15.3462C91.6919 14.615 91.8985 13.6647 91.9452 12.6402C91.989 11.6915 91.998 11.4065 91.998 9.0035C91.998 6.6005 91.989 6.3155 91.9452 5.36675C91.8985 4.34225 91.6919 3.392 90.9566 2.66075C90.2213 1.9295 89.2659 1.724 88.2358 1.6775ZM79.9375 8.9965C79.9375 6.44425 82.0181 4.375 84.5843 4.375C87.1506 4.375 89.2311 6.44425 89.2311 8.9965C89.2311 11.5487 87.1506 13.618 84.5843 13.618C82.0181 13.618 79.9375 11.5487 79.9375 8.9965ZM81.5742 9C81.5742 10.6567 82.9248 12 84.5907 12C86.2565 12 87.6071 10.6567 87.6071 9C87.6071 7.34325 86.2565 6 84.5907 6C82.9248 6 81.5742 7.34325 81.5742 9ZM90.4882 4.2011C90.4882 4.79756 90.0021 5.2811 89.4023 5.2811C88.8026 5.2811 88.3164 4.79756 88.3164 4.2011C88.3164 3.60463 88.8026 3.12109 89.4023 3.12109C90.0021 3.12109 90.4882 3.60463 90.4882 4.2011Z" fill="white"/>
</g>
</g>
<path id="Combined Shape_2" fill-rule="evenodd" clip-rule="evenodd" d="M132.012 13.8393C132.09 14.5722 131.5 15.1656 130.762 15.1656L126.465 15.1656C125.729 15.1656 125.126 14.5717 125.033 13.8429C124.761 11.7161 123.753 7.77196 120.013 7.77196C119.82 7.77196 119.566 7.75448 119.31 7.73068C118.669 7.67118 118.19 7.13459 118.165 6.49259L117.989 1.94667C117.959 1.16627 118.604 0.526544 119.383 0.585849C120.138 0.643276 121.025 0.728784 121.622 0.844188C129.976 2.46153 131.669 10.6056 132.012 13.8393Z" fill="white"/>
</g>
</svg>
