<svg width="89" height="45" viewBox="0 0 89 45" fill="none" xmlns="http://www.w3.org/2000/svg">
<g id="Logo">
<g id="Vector">
<path d="M5.6533 33.9793C8.22032 33.9793 10.1564 35.4247 10.7709 37.7608H7.88218C7.43681 36.8391 6.62237 36.3773 5.62237 36.3773C4.00792 36.3773 2.90276 37.5752 2.90276 39.4824C2.90276 41.3897 4.00999 42.5876 5.62237 42.5876C6.62237 42.5876 7.43681 42.1258 7.88218 41.2041H10.7709C10.1564 43.5402 8.22032 44.9691 5.6533 44.9691C2.47183 44.9691 0.228516 42.7093 0.228516 39.4824C0.228516 36.2556 2.47183 33.9814 5.6533 33.9814V33.9793Z" fill="white"/>
<path d="M15.3214 34.103V42.8639H18.7647V44.8928H12.6946V34.103H15.3235H15.3214Z" fill="white"/>
<path d="M25.4349 44.9979C22.3771 44.9979 19.8864 42.7072 19.8864 39.4659C19.8864 36.2247 22.3771 33.9484 25.4349 33.9484C28.4926 33.9484 30.9524 36.2226 30.9524 39.4659C30.9524 42.7093 28.4926 44.9979 25.4349 44.9979ZM25.4349 42.6C27.1565 42.6 28.2782 41.3546 28.2782 39.4639C28.2782 37.5731 27.1565 36.3278 25.4349 36.3278C23.7132 36.3278 22.5771 37.5422 22.5771 39.4639C22.5771 41.3855 23.6843 42.6 25.4349 42.6Z" fill="white"/>
<path d="M32.6741 34.103H35.303V40.5587C35.303 41.835 35.9339 42.5711 37.1772 42.5711C38.4205 42.5711 39.0824 41.833 39.0824 40.5587V34.103H41.7113V40.5422C41.7113 43.5237 39.6205 45 37.1319 45C34.6432 45 32.6741 43.5237 32.6741 40.5422V34.103Z" fill="white"/>
<path d="M53.5608 39.4969C53.5608 42.6928 51.3485 44.8907 47.9051 44.8907H43.8639V34.101H47.9051C51.3485 34.101 53.5608 36.2824 53.5608 39.4948V39.4969ZM47.7361 42.6165C49.7196 42.6165 50.8866 41.4783 50.8866 39.4969C50.8866 37.5154 49.7175 36.3463 47.7361 36.3463H46.4907V42.6165H47.7361Z" fill="white"/>
<path d="M60.431 44.9979C57.4042 44.9979 54.9279 42.7237 54.9279 39.4969C54.9279 36.27 57.4021 34.0102 60.431 34.0102C63.4599 34.0102 65.9176 36.2845 65.9176 39.4969C65.9176 42.7093 63.4743 44.9979 60.431 44.9979ZM60.431 43.0763C62.3671 43.0763 63.7052 41.6783 63.7052 39.4948C63.7052 37.3113 62.3671 35.9443 60.431 35.9443C58.4949 35.9443 57.1423 37.3113 57.1423 39.4948C57.1423 41.6783 58.4784 43.0763 60.431 43.0763Z" fill="white"/>
<path d="M69.9754 43.1835H73.5094V44.8887H67.8228V34.1607H69.9754V43.1835Z" fill="white"/>
<path d="M77.3363 43.1835H80.8703V44.8887H75.1837V34.1607H77.3363V43.1835Z" fill="white"/>
<path d="M88.7714 35.901H84.6992V38.5896H88.3116V40.2948H84.6992V43.1381H88.7714V44.8907H82.5466V34.1484H88.7714V35.901Z" fill="white"/>
<path d="M53.5421 5.69489C51.6864 2.30105 48.0864 0 43.9461 0C39.3317 0 35.3873 2.86188 33.7853 6.9052C33.7853 6.9052 34.2244 16.5651 25.779 21.928C27.478 24.0497 30.0863 25.4126 33.0162 25.4126C60.4432 25.4126 53.5421 5.69695 53.5421 5.69695V5.69489Z" fill="white"/>
<path d="M31.9296 7.04129C31.7028 7.02273 31.476 7.00624 31.243 7.00624C26.6718 7.00624 22.9687 10.7114 22.9687 15.2805C22.9687 17.2352 23.6512 19.029 24.7852 20.4455C32.3234 15.6599 31.9296 7.03923 31.9296 7.03923V7.04129Z" fill="white"/>
<path d="M56.9565 6.71551C56.505 6.71551 56.0596 6.7485 55.6225 6.8083C55.6225 6.8083 62.5215 26.5239 35.0966 26.5239H56.9565C62.4267 26.5239 66.8597 22.0888 66.8597 16.6207C66.8597 11.1527 62.4246 6.71551 56.9565 6.71551Z" fill="white"/>
</g>
</g>
</svg>
